<?xml version="1.0" encoding="UTF-8"?>
<svg width="316px" height="209px" viewBox="0 0 316 209" version="1.1" xmlns="http://www.w3.org/2000/svg" xmlns:xlink="http://www.w3.org/1999/xlink">
    <!-- Generator: Sketch 49.3 (51167) - http://www.bohemiancoding.com/sketch -->
    <title>Artboard 2</title>
    <desc>Created with Sketch.</desc>
    <defs></defs>
    <g id="Artboard-2" stroke="#f2f7ff" stroke-width="1" fill="#f2f7ff" fill-rule="evenodd">
        <path d="M105.598603,136.091122 C105.409601,136.031913 105.208527,136 105,136 C103.895431,136 103,136.895431 103,138 L103,158 C103,159.104569 103.895431,160 105,160 C105.208527,160 105.409601,159.968087 105.598603,159.908878 C105.814202,159.968087 106.04357,160 106.281442,160 C107.541447,160 108.562884,159.104569 108.562884,158 L108.562884,138 C108.562884,136.895431 107.541447,136 106.281442,136 C106.04357,136 105.814202,136.031913 105.598603,136.091122 Z M24.598603,136.091122 C24.4096008,136.031913 24.2085273,136 24,136 C22.8954305,136 22,136.895431 22,138 L22,158 C22,159.104569 22.8954305,160 24,160 C24.2085273,160 24.4096008,159.968087 24.598603,159.908878 C24.8142017,159.968087 25.0435705,160 25.2814419,160 C26.5414474,160 27.5628838,159.104569 27.5628838,158 L27.5628838,138 C27.5628838,136.895431 26.5414474,136 25.2814419,136 C25.0435705,136 24.8142017,136.031913 24.598603,136.091122 Z M95.000003,136.997683 C95.000001,136.998455 95,136.999227 95,137 L95,159 C95,159.000773 95.000001,159.001545 95.000003,159.002317 C95.0012527,159.553536 95.4484878,160 96,160 C96.0220863,160 96.0440054,159.999284 96.0657353,159.997874 C96.0905231,159.999284 96.1155266,160 96.1407209,160 C96.7707237,160 97.2814419,159.552285 97.2814419,159 L97.2814419,137 C97.2814419,136.447715 96.7707237,136 96.1407209,136 C96.1155266,136 96.0905231,136.000716 96.0657353,136.002126 C96.0440054,136.000716 96.0220863,136 96,136 C95.4484878,136 95.0012527,136.446464 95.0000026,136.997683 Z M14.000003,136.997683 C14.000001,136.998455 14,136.999227 14,137 L14,159 C14,159.000773 14.000001,159.001545 14.000003,159.002317 C14.0012527,159.553536 14.4484878,160 15,160 C15.0220863,160 15.0440054,159.999284 15.0657353,159.997874 C15.0905231,159.999284 15.1155266,160 15.1407209,160 C15.7707237,160 16.2814419,159.552285 16.2814419,159 L16.2814419,137 C16.2814419,136.447715 15.7707237,136 15.1407209,136 C15.1155266,136 15.0905231,136.000716 15.0657353,136.002126 C15.0440054,136.000716 15.0220863,136 15,136 C14.4484878,136 14.0012527,136.446464 14.0000026,136.997683 Z M316,14 L0,14 L0,8 C-5.41083001e-16,3.581722 3.581722,8.11624501e-16 8,0 L308,0 C312.418278,-8.11624501e-16 316,3.581722 316,8 L316,14 Z M316,63 L316,201 C316,205.418278 312.418278,209 308,209 L8,209 C3.581722,209 5.41083001e-16,205.418278 0,201 L0,63 L316,63 Z M254,72 C252.343146,72 251,73.3431458 251,75 L251,123 C251,124.656854 252.343146,126 254,126 L302,126 C303.656854,126 305,124.656854 305,123 L305,75 C305,73.3431458 303.656854,72 302,72 L254,72 Z M73,159 C73,159.552285 73.5107182,160 74.1407209,160 C74.7707237,160 75.2814419,159.552285 75.2814419,159 L75.2814419,137 C75.2814419,136.447715 74.7707237,136 74.1407209,136 C73.5107182,136 73,136.447715 73,137 L73,159 Z M154,159 C154,159.552285 154.510718,160 155.140721,160 C155.770724,160 156.281442,159.552285 156.281442,159 L156.281442,137 C156.281442,136.447715 155.770724,136 155.140721,136 C154.510718,136 154,136.447715 154,137 L154,159 Z M18,159 C18,159.552285 18.5107182,160 19.1407209,160 C19.7707237,160 20.2814419,159.552285 20.2814419,159 L20.2814419,137 C20.2814419,136.447715 19.7707237,136 19.1407209,136 C18.5107182,136 18,136.447715 18,137 L18,159 Z M99,159 C99,159.552285 99.5107182,160 100.140721,160 C100.770724,160 101.281442,159.552285 101.281442,159 L101.281442,137 C101.281442,136.447715 100.770724,136 100.140721,136 C99.5107182,136 99,136.447715 99,137 L99,159 Z M78,159 C78,159.552285 78.5107182,160 79.1407209,160 C79.7707237,160 80.2814419,159.552285 80.2814419,159 L80.2814419,137 C80.2814419,136.447715 79.7707237,136 79.1407209,136 C78.5107182,136 78,136.447715 78,137 L78,159 Z M159,159 C159,159.552285 159.510718,160 160.140721,160 C160.770724,160 161.281442,159.552285 161.281442,159 L161.281442,137 C161.281442,136.447715 160.770724,136 160.140721,136 C159.510718,136 159,136.447715 159,137 L159,159 Z M226,159 C226,159.552285 226.510718,160 227.140721,160 C227.770724,160 228.281442,159.552285 228.281442,159 L228.281442,137 C228.281442,136.447715 227.770724,136 227.140721,136 C226.510718,136 226,136.447715 226,137 L226,159 Z M126,159 C126,159.552285 126.510718,160 127.140721,160 C127.770724,160 128.281442,159.552285 128.281442,159 L128.281442,137 C128.281442,136.447715 127.770724,136 127.140721,136 C126.510718,136 126,136.447715 126,137 L126,159 Z M114,159 C114,159.552285 114.510718,160 115.140721,160 C115.770724,160 116.281442,159.552285 116.281442,159 L116.281442,137 C116.281442,136.447715 115.770724,136 115.140721,136 C114.510718,136 114,136.447715 114,137 L114,159 Z M175,159 C175,159.552285 175.510718,160 176.140721,160 C176.770724,160 177.281442,159.552285 177.281442,159 L177.281442,137 C177.281442,136.447715 176.770724,136 176.140721,136 C175.510718,136 175,136.447715 175,137 L175,159 Z M67,159 C67,159.552285 67.5107182,160 68.1407209,160 C68.7707237,160 69.2814419,159.552285 69.2814419,159 L69.2814419,137 C69.2814419,136.447715 68.7707237,136 68.1407209,136 C67.5107182,136 67,136.447715 67,137 L67,159 Z M148,159 C148,159.552285 148.510718,160 149.140721,160 C149.770724,160 150.281442,159.552285 150.281442,159 L150.281442,137 C150.281442,136.447715 149.770724,136 149.140721,136 C148.510718,136 148,136.447715 148,137 L148,159 Z M137,159 C137,159.552285 137.510718,160 138.140721,160 C138.770724,160 139.281442,159.552285 139.281442,159 L139.281442,137 C139.281442,136.447715 138.770724,136 138.140721,136 C137.510718,136 137,136.447715 137,137 L137,159 Z M218,159 C218,159.552285 218.510718,160 219.140721,160 C219.770724,160 220.281442,159.552285 220.281442,159 L220.281442,137 C220.281442,136.447715 219.770724,136 219.140721,136 C218.510718,136 218,136.447715 218,137 L218,159 Z M53,159 C53,159.552285 53.5107182,160 54.1407209,160 C54.7707237,160 55.2814419,159.552285 55.2814419,159 L55.2814419,137 C55.2814419,136.447715 54.7707237,136 54.1407209,136 C53.5107182,136 53,136.447715 53,137 L53,159 Z M133,159 C133,159.552285 133.510718,160 134.140721,160 C134.770724,160 135.281442,159.552285 135.281442,159 L135.281442,137 C135.281442,136.447715 134.770724,136 134.140721,136 C133.510718,136 133,136.447715 133,137 L133,159 Z M243,159 C243,159.552285 243.510718,160 244.140721,160 C244.770724,160 245.281442,159.552285 245.281442,159 L245.281442,137 C245.281442,136.447715 244.770724,136 244.140721,136 C243.510718,136 243,136.447715 243,137 L243,159 Z M196,159 C196,159.552285 196.510718,160 197.140721,160 C197.770724,160 198.281442,159.552285 198.281442,159 L198.281442,137 C198.281442,136.447715 197.770724,136 197.140721,136 C196.510718,136 196,136.447715 196,137 L196,159 Z M82,158 C82,159.104569 83.0214363,160 84.2814419,160 C85.5414474,160 86.5628838,159.104569 86.5628838,158 L86.5628838,138 C86.5628838,136.895431 85.5414474,136 84.2814419,136 C83.0214363,136 82,136.895431 82,138 L82,158 Z M163,158 C163,159.104569 164.021436,160 165.281442,160 C166.541447,160 167.562884,159.104569 167.562884,158 L167.562884,138 C167.562884,136.895431 166.541447,136 165.281442,136 C164.021436,136 163,136.895431 163,138 L163,158 Z M38,158 C38,159.104569 39.0214363,160 40.2814419,160 C41.5414474,160 42.5628838,159.104569 42.5628838,158 L42.5628838,138 C42.5628838,136.895431 41.5414474,136 40.2814419,136 C39.0214363,136 38,136.895431 38,138 L38,158 Z M119,158 C119,159.104569 120.021436,160 121.281442,160 C122.541447,160 123.562884,159.104569 123.562884,158 L123.562884,138 C123.562884,136.895431 122.541447,136 121.281442,136 C120.021436,136 119,136.895431 119,138 L119,158 Z M180,158 C180,159.104569 181.021436,160 182.281442,160 C183.541447,160 184.562884,159.104569 184.562884,158 L184.562884,138 C184.562884,136.895431 183.541447,136 182.281442,136 C181.021436,136 180,136.895431 180,138 L180,158 Z M188,158 C188,159.104569 189.021436,160 190.281442,160 C191.541447,160 192.562884,159.104569 192.562884,158 L192.562884,138 C192.562884,136.895431 191.541447,136 190.281442,136 C189.021436,136 188,136.895431 188,138 L188,158 Z M57,158 C57,159.104569 58.0214363,160 59.2814419,160 C60.5414474,160 61.5628838,159.104569 61.5628838,158 L61.5628838,138 C61.5628838,136.895431 60.5414474,136 59.2814419,136 C58.0214363,136 57,136.895431 57,138 L57,158 Z M142,158 C142,159.104569 143.021436,160 144.281442,160 C145.541447,160 146.562884,159.104569 146.562884,158 L146.562884,138 C146.562884,136.895431 145.541447,136 144.281442,136 C143.021436,136 142,136.895431 142,138 L142,158 Z M235,158 C235,159.104569 236.021436,160 237.281442,160 C238.541447,160 239.562884,159.104569 239.562884,158 L239.562884,138 C239.562884,136.895431 238.541447,136 237.281442,136 C236.021436,136 235,136.895431 235,138 L235,158 Z M211,158 C211,159.104569 212.021436,160 213.281442,160 C214.541447,160 215.562884,159.104569 215.562884,158 L215.562884,138 C215.562884,136.895431 214.541447,136 213.281442,136 C212.021436,136 211,136.895431 211,138 L211,158 Z M17,76 C14.2385763,76 12,78.2385763 12,81 C12,83.7614237 14.2385763,86 17,86 L102,86 C104.761424,86 107,83.7614237 107,81 C107,78.2385763 104.761424,76 102,76 L17,76 Z M121,76 C118.238576,76 116,78.2385763 116,81 C116,83.7614237 118.238576,86 121,86 L164,86 C166.761424,86 169,83.7614237 169,81 C169,78.2385763 166.761424,76 164,76 L121,76 Z M17,92 C14.2385763,92 12,94.2385763 12,97 C12,99.7614237 14.2385763,102 17,102 L60,102 C62.7614237,102 65,99.7614237 65,97 C65,94.2385763 62.7614237,92 60,92 L17,92 Z M16.9966423,181.334926 L17.0123569,181.337523 C16.8540717,181.362526 16.697871,181.406269 16.54375,181.46875 C16.3895826,181.53125 16.2333341,181.608333 16.075,181.7 L14.1625,182.8125 L14.975,184.175 L16.875,183.0625 C17.1833349,182.895832 17.4333324,182.704168 17.625,182.4875 C17.5749997,182.629167 17.5395834,182.781249 17.51875,182.94375 C17.4979166,183.106251 17.4875,183.270832 17.4875,183.4375 L17.4875,185.6625 L19.125,185.6625 L19.125,183.4125 C19.125,183.070832 19.0750005,182.754168 18.975,182.4625 C19.0750005,182.579167 19.191666,182.685416 19.325,182.78125 C19.458334,182.877084 19.5999992,182.970833 19.75,183.0625 L21.6625,184.2 L22.4625,182.8375 L20.55,181.7 C20.2416651,181.508332 19.9333349,181.3875 19.625,181.3375 C19.7833341,181.304167 19.9395826,181.25625 20.09375,181.19375 C20.2479174,181.13125 20.3999992,181.054167 20.55,180.9625 L22.4625,179.85 L21.65,178.5 L19.75,179.6125 C19.5999992,179.695834 19.4604173,179.783333 19.33125,179.875 C19.2053968,179.964315 19.0933899,180.065496 18.9875229,180.187435 C19.0375111,180.045786 19.0729197,179.893726 19.09375,179.73125 C19.1145834,179.568749 19.125,179.404167 19.125,179.2375 L19.125,177 L17.4875,177 L17.4875,179.2625 C17.4875,179.604168 17.5374995,179.916665 17.6375,180.2 C17.437499,179.974999 17.1833349,179.779167 16.875,179.6125 L14.9625,178.475 L14.1625,179.825 L16.075,180.9625 C16.2250008,181.054167 16.3791659,181.133333 16.5375,181.2 C16.6905482,181.264441 16.8435942,181.309416 16.9966423,181.334926 Z M18.9875229,180.187435 C18.9875153,180.187457 18.9875076,180.187478 18.9875,180.1875 C18.9900658,180.184507 18.9926412,180.181521 18.9952262,180.178544 L18.9875229,180.187435 Z M27.6216423,181.334926 L27.6373569,181.337523 C27.4790717,181.362526 27.322871,181.406269 27.16875,181.46875 C27.0145826,181.53125 26.8583341,181.608333 26.7,181.7 L24.7875,182.8125 L25.6,184.175 L27.5,183.0625 C27.8083349,182.895832 28.0583324,182.704168 28.25,182.4875 C28.1999997,182.629167 28.1645834,182.781249 28.14375,182.94375 C28.1229166,183.106251 28.1125,183.270832 28.1125,183.4375 L28.1125,185.6625 L29.75,185.6625 L29.75,183.4125 C29.75,183.070832 29.7000005,182.754168 29.6,182.4625 C29.7000005,182.579167 29.816666,182.685416 29.95,182.78125 C30.083334,182.877084 30.2249992,182.970833 30.375,183.0625 L32.2875,184.2 L33.0875,182.8375 L31.175,181.7 C30.8666651,181.508332 30.5583349,181.3875 30.25,181.3375 C30.4083341,181.304167 30.5645826,181.25625 30.71875,181.19375 C30.8729174,181.13125 31.0249992,181.054167 31.175,180.9625 L33.0875,179.85 L32.275,178.5 L30.375,179.6125 C30.2249992,179.695834 30.0854173,179.783333 29.95625,179.875 C29.8303968,179.964315 29.7183899,180.065496 29.6125229,180.187435 C29.6625111,180.045786 29.6979197,179.893726 29.71875,179.73125 C29.7395834,179.568749 29.75,179.404167 29.75,179.2375 L29.75,177 L28.1125,177 L28.1125,179.2625 C28.1125,179.604168 28.1624995,179.916665 28.2625,180.2 C28.062499,179.974999 27.8083349,179.779167 27.5,179.6125 L25.5875,178.475 L24.7875,179.825 L26.7,180.9625 C26.8500008,181.054167 27.0041659,181.133333 27.1625,181.2 C27.3155482,181.264441 27.4685942,181.309416 27.6216423,181.334926 Z M29.6125229,180.187435 C29.6125153,180.187457 29.6125076,180.187478 29.6125,180.1875 C29.6150658,180.184507 29.6176412,180.181521 29.6202262,180.178544 L29.6125229,180.187435 Z M38.2466423,181.334926 L38.2623569,181.337523 C38.1040717,181.362526 37.947871,181.406269 37.79375,181.46875 C37.6395826,181.53125 37.4833341,181.608333 37.325,181.7 L35.4125,182.8125 L36.225,184.175 L38.125,183.0625 C38.4333349,182.895832 38.6833324,182.704168 38.875,182.4875 C38.8249997,182.629167 38.7895834,182.781249 38.76875,182.94375 C38.7479166,183.106251 38.7375,183.270832 38.7375,183.4375 L38.7375,185.6625 L40.375,185.6625 L40.375,183.4125 C40.375,183.070832 40.3250005,182.754168 40.225,182.4625 C40.3250005,182.579167 40.441666,182.685416 40.575,182.78125 C40.708334,182.877084 40.8499992,182.970833 41,183.0625 L42.9125,184.2 L43.7125,182.8375 L41.8,181.7 C41.4916651,181.508332 41.1833349,181.3875 40.875,181.3375 C41.0333341,181.304167 41.1895826,181.25625 41.34375,181.19375 C41.4979174,181.13125 41.6499992,181.054167 41.8,180.9625 L43.7125,179.85 L42.9,178.5 L41,179.6125 C40.8499992,179.695834 40.7104173,179.783333 40.58125,179.875 C40.4553968,179.964315 40.3433899,180.065496 40.2375229,180.187435 C40.2875111,180.045786 40.3229197,179.893726 40.34375,179.73125 C40.3645834,179.568749 40.375,179.404167 40.375,179.2375 L40.375,177 L38.7375,177 L38.7375,179.2625 C38.7375,179.604168 38.7874995,179.916665 38.8875,180.2 C38.687499,179.974999 38.4333349,179.779167 38.125,179.6125 L36.2125,178.475 L35.4125,179.825 L37.325,180.9625 C37.4750008,181.054167 37.6291659,181.133333 37.7875,181.2 C37.9405482,181.264441 38.0935942,181.309416 38.2466423,181.334926 Z M40.2375229,180.187435 C40.2375153,180.187457 40.2375076,180.187478 40.2375,180.1875 C40.2400658,180.184507 40.2426412,180.181521 40.2452262,180.178544 L40.2375229,180.187435 Z M48.8716423,181.334926 L48.8873569,181.337523 C48.7290717,181.362526 48.572871,181.406269 48.41875,181.46875 C48.2645826,181.53125 48.1083341,181.608333 47.95,181.7 L46.0375,182.8125 L46.85,184.175 L48.75,183.0625 C49.0583349,182.895832 49.3083324,182.704168 49.5,182.4875 C49.4499997,182.629167 49.4145834,182.781249 49.39375,182.94375 C49.3729166,183.106251 49.3625,183.270832 49.3625,183.4375 L49.3625,185.6625 L51,185.6625 L51,183.4125 C51,183.070832 50.9500005,182.754168 50.85,182.4625 C50.9500005,182.579167 51.066666,182.685416 51.2,182.78125 C51.333334,182.877084 51.4749992,182.970833 51.625,183.0625 L53.5375,184.2 L54.3375,182.8375 L52.425,181.7 C52.1166651,181.508332 51.8083349,181.3875 51.5,181.3375 C51.6583341,181.304167 51.8145826,181.25625 51.96875,181.19375 C52.1229174,181.13125 52.2749992,181.054167 52.425,180.9625 L54.3375,179.85 L53.525,178.5 L51.625,179.6125 C51.4749992,179.695834 51.3354173,179.783333 51.20625,179.875 C51.0803968,179.964315 50.9683899,180.065496 50.8625229,180.187435 C50.9125111,180.045786 50.9479197,179.893726 50.96875,179.73125 C50.9895834,179.568749 51,179.404167 51,179.2375 L51,177 L49.3625,177 L49.3625,179.2625 C49.3625,179.604168 49.4124995,179.916665 49.5125,180.2 C49.312499,179.974999 49.0583349,179.779167 48.75,179.6125 L46.8375,178.475 L46.0375,179.825 L47.95,180.9625 C48.1000008,181.054167 48.2541659,181.133333 48.4125,181.2 C48.5655482,181.264441 48.7185942,181.309416 48.8716423,181.334926 Z M50.8625229,180.187435 C50.8625153,180.187457 50.8625076,180.187478 50.8625,180.1875 C50.8650658,180.184507 50.8676412,180.181521 50.8702262,180.178544 L50.8625229,180.187435 Z M59.4966423,181.334926 L59.5123569,181.337523 C59.3540717,181.362526 59.197871,181.406269 59.04375,181.46875 C58.8895826,181.53125 58.7333341,181.608333 58.575,181.7 L56.6625,182.8125 L57.475,184.175 L59.375,183.0625 C59.6833349,182.895832 59.9333324,182.704168 60.125,182.4875 C60.0749997,182.629167 60.0395834,182.781249 60.01875,182.94375 C59.9979166,183.106251 59.9875,183.270832 59.9875,183.4375 L59.9875,185.6625 L61.625,185.6625 L61.625,183.4125 C61.625,183.070832 61.5750005,182.754168 61.475,182.4625 C61.5750005,182.579167 61.691666,182.685416 61.825,182.78125 C61.958334,182.877084 62.0999992,182.970833 62.25,183.0625 L64.1625,184.2 L64.9625,182.8375 L63.05,181.7 C62.7416651,181.508332 62.4333349,181.3875 62.125,181.3375 C62.2833341,181.304167 62.4395826,181.25625 62.59375,181.19375 C62.7479174,181.13125 62.8999992,181.054167 63.05,180.9625 L64.9625,179.85 L64.15,178.5 L62.25,179.6125 C62.0999992,179.695834 61.9604173,179.783333 61.83125,179.875 C61.7053968,179.964315 61.5933899,180.065496 61.4875229,180.187435 C61.5375111,180.045786 61.5729197,179.893726 61.59375,179.73125 C61.6145834,179.568749 61.625,179.404167 61.625,179.2375 L61.625,177 L59.9875,177 L59.9875,179.2625 C59.9875,179.604168 60.0374995,179.916665 60.1375,180.2 C59.937499,179.974999 59.6833349,179.779167 59.375,179.6125 L57.4625,178.475 L56.6625,179.825 L58.575,180.9625 C58.7250008,181.054167 58.8791659,181.133333 59.0375,181.2 C59.1905482,181.264441 59.3435942,181.309416 59.4966423,181.334926 Z M61.4875229,180.187435 C61.4875153,180.187457 61.4875076,180.187478 61.4875,180.1875 C61.4900658,180.184507 61.4926412,180.181521 61.4952262,180.178544 L61.4875229,180.187435 Z M81.9966423,181.334926 L82.0123569,181.337523 C81.8540717,181.362526 81.697871,181.406269 81.54375,181.46875 C81.3895826,181.53125 81.2333341,181.608333 81.075,181.7 L79.1625,182.8125 L79.975,184.175 L81.875,183.0625 C82.1833349,182.895832 82.4333324,182.704168 82.625,182.4875 C82.5749997,182.629167 82.5395834,182.781249 82.51875,182.94375 C82.4979166,183.106251 82.4875,183.270832 82.4875,183.4375 L82.4875,185.6625 L84.125,185.6625 L84.125,183.4125 C84.125,183.070832 84.0750005,182.754168 83.975,182.4625 C84.0750005,182.579167 84.191666,182.685416 84.325,182.78125 C84.458334,182.877084 84.5999992,182.970833 84.75,183.0625 L86.6625,184.2 L87.4625,182.8375 L85.55,181.7 C85.2416651,181.508332 84.9333349,181.3875 84.625,181.3375 C84.7833341,181.304167 84.9395826,181.25625 85.09375,181.19375 C85.2479174,181.13125 85.3999993,181.054167 85.55,180.9625 L87.4625,179.85 L86.65,178.5 L84.75,179.6125 C84.5999992,179.695834 84.4604173,179.783333 84.33125,179.875 C84.2053968,179.964315 84.0933899,180.065496 83.9875229,180.187435 C84.0375111,180.045786 84.0729197,179.893726 84.09375,179.73125 C84.1145834,179.568749 84.125,179.404167 84.125,179.2375 L84.125,177 L82.4875,177 L82.4875,179.2625 C82.4875,179.604168 82.5374995,179.916665 82.6375,180.2 C82.437499,179.974999 82.1833349,179.779167 81.875,179.6125 L79.9625,178.475 L79.1625,179.825 L81.075,180.9625 C81.2250007,181.054167 81.3791659,181.133333 81.5375,181.2 C81.6905482,181.264441 81.8435942,181.309416 81.9966423,181.334926 Z M83.9875229,180.187435 C83.9875153,180.187457 83.9875076,180.187478 83.9875,180.1875 C83.9900658,180.184507 83.9926412,180.181521 83.9952262,180.178544 L83.9875229,180.187435 Z M92.6216423,181.334926 L92.6373569,181.337523 C92.4790717,181.362526 92.322871,181.406269 92.16875,181.46875 C92.0145826,181.53125 91.8583341,181.608333 91.7,181.7 L89.7875,182.8125 L90.6,184.175 L92.5,183.0625 C92.8083349,182.895832 93.0583324,182.704168 93.25,182.4875 C93.1999997,182.629167 93.1645834,182.781249 93.14375,182.94375 C93.1229166,183.106251 93.1125,183.270832 93.1125,183.4375 L93.1125,185.6625 L94.75,185.6625 L94.75,183.4125 C94.75,183.070832 94.7000005,182.754168 94.6,182.4625 C94.7000005,182.579167 94.816666,182.685416 94.95,182.78125 C95.083334,182.877084 95.2249992,182.970833 95.375,183.0625 L97.2875,184.2 L98.0875,182.8375 L96.175,181.7 C95.8666651,181.508332 95.5583349,181.3875 95.25,181.3375 C95.4083341,181.304167 95.5645826,181.25625 95.71875,181.19375 C95.8729174,181.13125 96.0249993,181.054167 96.175,180.9625 L98.0875,179.85 L97.275,178.5 L95.375,179.6125 C95.2249992,179.695834 95.0854173,179.783333 94.95625,179.875 C94.8303968,179.964315 94.7183899,180.065496 94.6125229,180.187435 C94.6625111,180.045786 94.6979197,179.893726 94.71875,179.73125 C94.7395834,179.568749 94.75,179.404167 94.75,179.2375 L94.75,177 L93.1125,177 L93.1125,179.2625 C93.1125,179.604168 93.1624995,179.916665 93.2625,180.2 C93.062499,179.974999 92.8083349,179.779167 92.5,179.6125 L90.5875,178.475 L89.7875,179.825 L91.7,180.9625 C91.8500007,181.054167 92.0041659,181.133333 92.1625,181.2 C92.3155482,181.264441 92.4685942,181.309416 92.6216423,181.334926 Z M94.6125229,180.187435 C94.6125153,180.187457 94.6125076,180.187478 94.6125,180.1875 C94.6150658,180.184507 94.6176412,180.181521 94.6202262,180.178544 L94.6125229,180.187435 Z M103.246642,181.334926 L103.262357,181.337523 C103.104072,181.362526 102.947871,181.406269 102.79375,181.46875 C102.639583,181.53125 102.483334,181.608333 102.325,181.7 L100.4125,182.8125 L101.225,184.175 L103.125,183.0625 C103.433335,182.895832 103.683332,182.704168 103.875,182.4875 C103.825,182.629167 103.789583,182.781249 103.76875,182.94375 C103.747917,183.106251 103.7375,183.270832 103.7375,183.4375 L103.7375,185.6625 L105.375,185.6625 L105.375,183.4125 C105.375,183.070832 105.325,182.754168 105.225,182.4625 C105.325,182.579167 105.441666,182.685416 105.575,182.78125 C105.708334,182.877084 105.849999,182.970833 106,183.0625 L107.9125,184.2 L108.7125,182.8375 L106.8,181.7 C106.491665,181.508332 106.183335,181.3875 105.875,181.3375 C106.033334,181.304167 106.189583,181.25625 106.34375,181.19375 C106.497917,181.13125 106.649999,181.054167 106.8,180.9625 L108.7125,179.85 L107.9,178.5 L106,179.6125 C105.849999,179.695834 105.710417,179.783333 105.58125,179.875 C105.455397,179.964315 105.34339,180.065496 105.237523,180.187435 C105.287511,180.045786 105.32292,179.893726 105.34375,179.73125 C105.364583,179.568749 105.375,179.404167 105.375,179.2375 L105.375,177 L103.7375,177 L103.7375,179.2625 C103.7375,179.604168 103.787499,179.916665 103.8875,180.2 C103.687499,179.974999 103.433335,179.779167 103.125,179.6125 L101.2125,178.475 L100.4125,179.825 L102.325,180.9625 C102.475001,181.054167 102.629166,181.133333 102.7875,181.2 C102.940548,181.264441 103.093594,181.309416 103.246642,181.334926 Z M105.237523,180.187435 C105.237515,180.187457 105.237508,180.187478 105.2375,180.1875 C105.240066,180.184507 105.242641,180.181521 105.245226,180.178544 L105.237523,180.187435 Z M119.809142,181.334926 L119.824857,181.337523 C119.666572,181.362526 119.510371,181.406269 119.35625,181.46875 C119.202083,181.53125 119.045834,181.608333 118.8875,181.7 L116.975,182.8125 L117.7875,184.175 L119.6875,183.0625 C119.995835,182.895832 120.245832,182.704168 120.4375,182.4875 C120.3875,182.629167 120.352083,182.781249 120.33125,182.94375 C120.310417,183.106251 120.3,183.270832 120.3,183.4375 L120.3,185.6625 L121.9375,185.6625 L121.9375,183.4125 C121.9375,183.070832 121.8875,182.754168 121.7875,182.4625 C121.8875,182.579167 122.004166,182.685416 122.1375,182.78125 C122.270834,182.877084 122.412499,182.970833 122.5625,183.0625 L124.475,184.2 L125.275,182.8375 L123.3625,181.7 C123.054165,181.508332 122.745835,181.3875 122.4375,181.3375 C122.595834,181.304167 122.752083,181.25625 122.90625,181.19375 C123.060417,181.13125 123.212499,181.054167 123.3625,180.9625 L125.275,179.85 L124.4625,178.5 L122.5625,179.6125 C122.412499,179.695834 122.272917,179.783333 122.14375,179.875 C122.017897,179.964315 121.90589,180.065496 121.800023,180.187435 C121.850011,180.045786 121.88542,179.893726 121.90625,179.73125 C121.927083,179.568749 121.9375,179.404167 121.9375,179.2375 L121.9375,177 L120.3,177 L120.3,179.2625 C120.3,179.604168 120.349999,179.916665 120.45,180.2 C120.249999,179.974999 119.995835,179.779167 119.6875,179.6125 L117.775,178.475 L116.975,179.825 L118.8875,180.9625 C119.037501,181.054167 119.191666,181.133333 119.35,181.2 C119.503048,181.264441 119.656094,181.309416 119.809142,181.334926 Z M121.800023,180.187435 C121.800015,180.187457 121.800008,180.187478 121.8,180.1875 C121.802566,180.184507 121.805141,180.181521 121.807726,180.178544 L121.800023,180.187435 Z M130.434142,181.334926 L130.449857,181.337523 C130.291572,181.362526 130.135371,181.406269 129.98125,181.46875 C129.827083,181.53125 129.670834,181.608333 129.5125,181.7 L127.6,182.8125 L128.4125,184.175 L130.3125,183.0625 C130.620835,182.895832 130.870832,182.704168 131.0625,182.4875 C131.0125,182.629167 130.977083,182.781249 130.95625,182.94375 C130.935417,183.106251 130.925,183.270832 130.925,183.4375 L130.925,185.6625 L132.5625,185.6625 L132.5625,183.4125 C132.5625,183.070832 132.5125,182.754168 132.4125,182.4625 C132.5125,182.579167 132.629166,182.685416 132.7625,182.78125 C132.895834,182.877084 133.037499,182.970833 133.1875,183.0625 L135.1,184.2 L135.9,182.8375 L133.9875,181.7 C133.679165,181.508332 133.370835,181.3875 133.0625,181.3375 C133.220834,181.304167 133.377083,181.25625 133.53125,181.19375 C133.685417,181.13125 133.837499,181.054167 133.9875,180.9625 L135.9,179.85 L135.0875,178.5 L133.1875,179.6125 C133.037499,179.695834 132.897917,179.783333 132.76875,179.875 C132.642897,179.964315 132.53089,180.065496 132.425023,180.187435 C132.475011,180.045786 132.51042,179.893726 132.53125,179.73125 C132.552083,179.568749 132.5625,179.404167 132.5625,179.2375 L132.5625,177 L130.925,177 L130.925,179.2625 C130.925,179.604168 130.974999,179.916665 131.075,180.2 C130.874999,179.974999 130.620835,179.779167 130.3125,179.6125 L128.4,178.475 L127.6,179.825 L129.5125,180.9625 C129.662501,181.054167 129.816666,181.133333 129.975,181.2 C130.128048,181.264441 130.281094,181.309416 130.434142,181.334926 Z M132.425023,180.187435 C132.425015,180.187457 132.425008,180.187478 132.425,180.1875 C132.427566,180.184507 132.430141,180.181521 132.432726,180.178544 L132.425023,180.187435 Z M141.059142,181.334926 L141.074857,181.337523 C140.916572,181.362526 140.760371,181.406269 140.60625,181.46875 C140.452083,181.53125 140.295834,181.608333 140.1375,181.7 L138.225,182.8125 L139.0375,184.175 L140.9375,183.0625 C141.245835,182.895832 141.495832,182.704168 141.6875,182.4875 C141.6375,182.629167 141.602083,182.781249 141.58125,182.94375 C141.560417,183.106251 141.55,183.270832 141.55,183.4375 L141.55,185.6625 L143.1875,185.6625 L143.1875,183.4125 C143.1875,183.070832 143.1375,182.754168 143.0375,182.4625 C143.1375,182.579167 143.254166,182.685416 143.3875,182.78125 C143.520834,182.877084 143.662499,182.970833 143.8125,183.0625 L145.725,184.2 L146.525,182.8375 L144.6125,181.7 C144.304165,181.508332 143.995835,181.3875 143.6875,181.3375 C143.845834,181.304167 144.002083,181.25625 144.15625,181.19375 C144.310417,181.13125 144.462499,181.054167 144.6125,180.9625 L146.525,179.85 L145.7125,178.5 L143.8125,179.6125 C143.662499,179.695834 143.522917,179.783333 143.39375,179.875 C143.267897,179.964315 143.15589,180.065496 143.050023,180.187435 C143.100011,180.045786 143.13542,179.893726 143.15625,179.73125 C143.177083,179.568749 143.1875,179.404167 143.1875,179.2375 L143.1875,177 L141.55,177 L141.55,179.2625 C141.55,179.604168 141.599999,179.916665 141.7,180.2 C141.499999,179.974999 141.245835,179.779167 140.9375,179.6125 L139.025,178.475 L138.225,179.825 L140.1375,180.9625 C140.287501,181.054167 140.441666,181.133333 140.6,181.2 C140.753048,181.264441 140.906094,181.309416 141.059142,181.334926 Z M143.050023,180.187435 C143.050015,180.187457 143.050008,180.187478 143.05,180.1875 C143.052566,180.184507 143.055141,180.181521 143.057726,180.178544 L143.050023,180.187435 Z M151.684142,181.334926 L151.699857,181.337523 C151.541572,181.362526 151.385371,181.406269 151.23125,181.46875 C151.077083,181.53125 150.920834,181.608333 150.7625,181.7 L148.85,182.8125 L149.6625,184.175 L151.5625,183.0625 C151.870835,182.895832 152.120832,182.704168 152.3125,182.4875 C152.2625,182.629167 152.227083,182.781249 152.20625,182.94375 C152.185417,183.106251 152.175,183.270832 152.175,183.4375 L152.175,185.6625 L153.8125,185.6625 L153.8125,183.4125 C153.8125,183.070832 153.7625,182.754168 153.6625,182.4625 C153.7625,182.579167 153.879166,182.685416 154.0125,182.78125 C154.145834,182.877084 154.287499,182.970833 154.4375,183.0625 L156.35,184.2 L157.15,182.8375 L155.2375,181.7 C154.929165,181.508332 154.620835,181.3875 154.3125,181.3375 C154.470834,181.304167 154.627083,181.25625 154.78125,181.19375 C154.935417,181.13125 155.087499,181.054167 155.2375,180.9625 L157.15,179.85 L156.3375,178.5 L154.4375,179.6125 C154.287499,179.695834 154.147917,179.783333 154.01875,179.875 C153.892897,179.964315 153.78089,180.065496 153.675023,180.187435 C153.725011,180.045786 153.76042,179.893726 153.78125,179.73125 C153.802083,179.568749 153.8125,179.404167 153.8125,179.2375 L153.8125,177 L152.175,177 L152.175,179.2625 C152.175,179.604168 152.224999,179.916665 152.325,180.2 C152.124999,179.974999 151.870835,179.779167 151.5625,179.6125 L149.65,178.475 L148.85,179.825 L150.7625,180.9625 C150.912501,181.054167 151.066666,181.133333 151.225,181.2 C151.378048,181.264441 151.531094,181.309416 151.684142,181.334926 Z M153.675023,180.187435 C153.675015,180.187457 153.675008,180.187478 153.675,180.1875 C153.677566,180.184507 153.680141,180.181521 153.682726,180.178544 L153.675023,180.187435 Z M162.309142,181.334926 L162.324857,181.337523 C162.166572,181.362526 162.010371,181.406269 161.85625,181.46875 C161.702083,181.53125 161.545834,181.608333 161.3875,181.7 L159.475,182.8125 L160.2875,184.175 L162.1875,183.0625 C162.495835,182.895832 162.745832,182.704168 162.9375,182.4875 C162.8875,182.629167 162.852083,182.781249 162.83125,182.94375 C162.810417,183.106251 162.8,183.270832 162.8,183.4375 L162.8,185.6625 L164.4375,185.6625 L164.4375,183.4125 C164.4375,183.070832 164.3875,182.754168 164.2875,182.4625 C164.3875,182.579167 164.504166,182.685416 164.6375,182.78125 C164.770834,182.877084 164.912499,182.970833 165.0625,183.0625 L166.975,184.2 L167.775,182.8375 L165.8625,181.7 C165.554165,181.508332 165.245835,181.3875 164.9375,181.3375 C165.095834,181.304167 165.252083,181.25625 165.40625,181.19375 C165.560417,181.13125 165.712499,181.054167 165.8625,180.9625 L167.775,179.85 L166.9625,178.5 L165.0625,179.6125 C164.912499,179.695834 164.772917,179.783333 164.64375,179.875 C164.517897,179.964315 164.40589,180.065496 164.300023,180.187435 C164.350011,180.045786 164.38542,179.893726 164.40625,179.73125 C164.427083,179.568749 164.4375,179.404167 164.4375,179.2375 L164.4375,177 L162.8,177 L162.8,179.2625 C162.8,179.604168 162.849999,179.916665 162.95,180.2 C162.749999,179.974999 162.495835,179.779167 162.1875,179.6125 L160.275,178.475 L159.475,179.825 L161.3875,180.9625 C161.537501,181.054167 161.691666,181.133333 161.85,181.2 C162.003048,181.264441 162.156094,181.309416 162.309142,181.334926 Z M164.300023,180.187435 C164.300015,180.187457 164.300008,180.187478 164.3,180.1875 C164.302566,180.184507 164.305141,180.181521 164.307726,180.178544 L164.300023,180.187435 Z M172.934142,181.334926 L172.949857,181.337523 C172.791572,181.362526 172.635371,181.406269 172.48125,181.46875 C172.327083,181.53125 172.170834,181.608333 172.0125,181.7 L170.1,182.8125 L170.9125,184.175 L172.8125,183.0625 C173.120835,182.895832 173.370832,182.704168 173.5625,182.4875 C173.5125,182.629167 173.477083,182.781249 173.45625,182.94375 C173.435417,183.106251 173.425,183.270832 173.425,183.4375 L173.425,185.6625 L175.0625,185.6625 L175.0625,183.4125 C175.0625,183.070832 175.0125,182.754168 174.9125,182.4625 C175.0125,182.579167 175.129166,182.685416 175.2625,182.78125 C175.395834,182.877084 175.537499,182.970833 175.6875,183.0625 L177.6,184.2 L178.4,182.8375 L176.4875,181.7 C176.179165,181.508332 175.870835,181.3875 175.5625,181.3375 C175.720834,181.304167 175.877083,181.25625 176.03125,181.19375 C176.185417,181.13125 176.337499,181.054167 176.4875,180.9625 L178.4,179.85 L177.5875,178.5 L175.6875,179.6125 C175.537499,179.695834 175.397917,179.783333 175.26875,179.875 C175.142897,179.964315 175.03089,180.065496 174.925023,180.187435 C174.975011,180.045786 175.01042,179.893726 175.03125,179.73125 C175.052083,179.568749 175.0625,179.404167 175.0625,179.2375 L175.0625,177 L173.425,177 L173.425,179.2625 C173.425,179.604168 173.474999,179.916665 173.575,180.2 C173.374999,179.974999 173.120835,179.779167 172.8125,179.6125 L170.9,178.475 L170.1,179.825 L172.0125,180.9625 C172.162501,181.054167 172.316666,181.133333 172.475,181.2 C172.628048,181.264441 172.781094,181.309416 172.934142,181.334926 Z M174.925023,180.187435 C174.925015,180.187457 174.925008,180.187478 174.925,180.1875 C174.927566,180.184507 174.930141,180.181521 174.932726,180.178544 L174.925023,180.187435 Z M183.559142,181.334926 L183.574857,181.337523 C183.416572,181.362526 183.260371,181.406269 183.10625,181.46875 C182.952083,181.53125 182.795834,181.608333 182.6375,181.7 L180.725,182.8125 L181.5375,184.175 L183.4375,183.0625 C183.745835,182.895832 183.995832,182.704168 184.1875,182.4875 C184.1375,182.629167 184.102083,182.781249 184.08125,182.94375 C184.060417,183.106251 184.05,183.270832 184.05,183.4375 L184.05,185.6625 L185.6875,185.6625 L185.6875,183.4125 C185.6875,183.070832 185.6375,182.754168 185.5375,182.4625 C185.6375,182.579167 185.754166,182.685416 185.8875,182.78125 C186.020834,182.877084 186.162499,182.970833 186.3125,183.0625 L188.225,184.2 L189.025,182.8375 L187.1125,181.7 C186.804165,181.508332 186.495835,181.3875 186.1875,181.3375 C186.345834,181.304167 186.502083,181.25625 186.65625,181.19375 C186.810417,181.13125 186.962499,181.054167 187.1125,180.9625 L189.025,179.85 L188.2125,178.5 L186.3125,179.6125 C186.162499,179.695834 186.022917,179.783333 185.89375,179.875 C185.767897,179.964315 185.65589,180.065496 185.550023,180.187435 C185.600011,180.045786 185.63542,179.893726 185.65625,179.73125 C185.677083,179.568749 185.6875,179.404167 185.6875,179.2375 L185.6875,177 L184.05,177 L184.05,179.2625 C184.05,179.604168 184.099999,179.916665 184.2,180.2 C183.999999,179.974999 183.745835,179.779167 183.4375,179.6125 L181.525,178.475 L180.725,179.825 L182.6375,180.9625 C182.787501,181.054167 182.941666,181.133333 183.1,181.2 C183.253048,181.264441 183.406094,181.309416 183.559142,181.334926 Z M185.550023,180.187435 C185.550015,180.187457 185.550008,180.187478 185.55,180.1875 C185.552566,180.184507 185.555141,180.181521 185.557726,180.178544 L185.550023,180.187435 Z M194.184142,181.334926 L194.199857,181.337523 C194.041572,181.362526 193.885371,181.406269 193.73125,181.46875 C193.577083,181.53125 193.420834,181.608333 193.2625,181.7 L191.35,182.8125 L192.1625,184.175 L194.0625,183.0625 C194.370835,182.895832 194.620832,182.704168 194.8125,182.4875 C194.7625,182.629167 194.727083,182.781249 194.70625,182.94375 C194.685417,183.106251 194.675,183.270832 194.675,183.4375 L194.675,185.6625 L196.3125,185.6625 L196.3125,183.4125 C196.3125,183.070832 196.2625,182.754168 196.1625,182.4625 C196.2625,182.579167 196.379166,182.685416 196.5125,182.78125 C196.645834,182.877084 196.787499,182.970833 196.9375,183.0625 L198.85,184.2 L199.65,182.8375 L197.7375,181.7 C197.429165,181.508332 197.120835,181.3875 196.8125,181.3375 C196.970834,181.304167 197.127083,181.25625 197.28125,181.19375 C197.435417,181.13125 197.587499,181.054167 197.7375,180.9625 L199.65,179.85 L198.8375,178.5 L196.9375,179.6125 C196.787499,179.695834 196.647917,179.783333 196.51875,179.875 C196.392897,179.964315 196.28089,180.065496 196.175023,180.187435 C196.225011,180.045786 196.26042,179.893726 196.28125,179.73125 C196.302083,179.568749 196.3125,179.404167 196.3125,179.2375 L196.3125,177 L194.675,177 L194.675,179.2625 C194.675,179.604168 194.724999,179.916665 194.825,180.2 C194.624999,179.974999 194.370835,179.779167 194.0625,179.6125 L192.15,178.475 L191.35,179.825 L193.2625,180.9625 C193.412501,181.054167 193.566666,181.133333 193.725,181.2 C193.878048,181.264441 194.031094,181.309416 194.184142,181.334926 Z M196.175023,180.187435 C196.175015,180.187457 196.175008,180.187478 196.175,180.1875 C196.177566,180.184507 196.180141,180.181521 196.182726,180.178544 L196.175023,180.187435 Z M210.746642,181.334926 L210.762357,181.337523 C210.604072,181.362526 210.447871,181.406269 210.29375,181.46875 C210.139583,181.53125 209.983334,181.608333 209.825,181.7 L207.9125,182.8125 L208.725,184.175 L210.625,183.0625 C210.933335,182.895832 211.183332,182.704168 211.375,182.4875 C211.325,182.629167 211.289583,182.781249 211.26875,182.94375 C211.247917,183.106251 211.2375,183.270832 211.2375,183.4375 L211.2375,185.6625 L212.875,185.6625 L212.875,183.4125 C212.875,183.070832 212.825,182.754168 212.725,182.4625 C212.825,182.579167 212.941666,182.685416 213.075,182.78125 C213.208334,182.877084 213.349999,182.970833 213.5,183.0625 L215.4125,184.2 L216.2125,182.8375 L214.3,181.7 C213.991665,181.508332 213.683335,181.3875 213.375,181.3375 C213.533334,181.304167 213.689583,181.25625 213.84375,181.19375 C213.997917,181.13125 214.149999,181.054167 214.3,180.9625 L216.2125,179.85 L215.4,178.5 L213.5,179.6125 C213.349999,179.695834 213.210417,179.783333 213.08125,179.875 C212.955397,179.964315 212.84339,180.065496 212.737523,180.187435 C212.787511,180.045786 212.82292,179.893726 212.84375,179.73125 C212.864583,179.568749 212.875,179.404167 212.875,179.2375 L212.875,177 L211.2375,177 L211.2375,179.2625 C211.2375,179.604168 211.287499,179.916665 211.3875,180.2 C211.187499,179.974999 210.933335,179.779167 210.625,179.6125 L208.7125,178.475 L207.9125,179.825 L209.825,180.9625 C209.975001,181.054167 210.129166,181.133333 210.2875,181.2 C210.440548,181.264441 210.593594,181.309416 210.746642,181.334926 Z M212.737523,180.187435 C212.737515,180.187457 212.737508,180.187478 212.7375,180.1875 C212.740066,180.184507 212.742641,180.181521 212.745226,180.178544 L212.737523,180.187435 Z M221.371642,181.334926 L221.387357,181.337523 C221.229072,181.362526 221.072871,181.406269 220.91875,181.46875 C220.764583,181.53125 220.608334,181.608333 220.45,181.7 L218.5375,182.8125 L219.35,184.175 L221.25,183.0625 C221.558335,182.895832 221.808332,182.704168 222,182.4875 C221.95,182.629167 221.914583,182.781249 221.89375,182.94375 C221.872917,183.106251 221.8625,183.270832 221.8625,183.4375 L221.8625,185.6625 L223.5,185.6625 L223.5,183.4125 C223.5,183.070832 223.45,182.754168 223.35,182.4625 C223.45,182.579167 223.566666,182.685416 223.7,182.78125 C223.833334,182.877084 223.974999,182.970833 224.125,183.0625 L226.0375,184.2 L226.8375,182.8375 L224.925,181.7 C224.616665,181.508332 224.308335,181.3875 224,181.3375 C224.158334,181.304167 224.314583,181.25625 224.46875,181.19375 C224.622917,181.13125 224.774999,181.054167 224.925,180.9625 L226.8375,179.85 L226.025,178.5 L224.125,179.6125 C223.974999,179.695834 223.835417,179.783333 223.70625,179.875 C223.580397,179.964315 223.46839,180.065496 223.362523,180.187435 C223.412511,180.045786 223.44792,179.893726 223.46875,179.73125 C223.489583,179.568749 223.5,179.404167 223.5,179.2375 L223.5,177 L221.8625,177 L221.8625,179.2625 C221.8625,179.604168 221.912499,179.916665 222.0125,180.2 C221.812499,179.974999 221.558335,179.779167 221.25,179.6125 L219.3375,178.475 L218.5375,179.825 L220.45,180.9625 C220.600001,181.054167 220.754166,181.133333 220.9125,181.2 C221.065548,181.264441 221.218594,181.309416 221.371642,181.334926 Z M223.362523,180.187435 C223.362515,180.187457 223.362508,180.187478 223.3625,180.1875 C223.365066,180.184507 223.367641,180.181521 223.370226,180.178544 L223.362523,180.187435 Z M243.871642,181.334926 L243.887357,181.337523 C243.729072,181.362526 243.572871,181.406269 243.41875,181.46875 C243.264583,181.53125 243.108334,181.608333 242.95,181.7 L241.0375,182.8125 L241.85,184.175 L243.75,183.0625 C244.058335,182.895832 244.308332,182.704168 244.5,182.4875 C244.45,182.629167 244.414583,182.781249 244.39375,182.94375 C244.372917,183.106251 244.3625,183.270832 244.3625,183.4375 L244.3625,185.6625 L246,185.6625 L246,183.4125 C246,183.070832 245.95,182.754168 245.85,182.4625 C245.95,182.579167 246.066666,182.685416 246.2,182.78125 C246.333334,182.877084 246.474999,182.970833 246.625,183.0625 L248.5375,184.2 L249.3375,182.8375 L247.425,181.7 C247.116665,181.508332 246.808335,181.3875 246.5,181.3375 C246.658334,181.304167 246.814583,181.25625 246.96875,181.19375 C247.122917,181.13125 247.274999,181.054167 247.425,180.9625 L249.3375,179.85 L248.525,178.5 L246.625,179.6125 C246.474999,179.695834 246.335417,179.783333 246.20625,179.875 C246.080397,179.964315 245.96839,180.065496 245.862523,180.187435 C245.912511,180.045786 245.94792,179.893726 245.96875,179.73125 C245.989583,179.568749 246,179.404167 246,179.2375 L246,177 L244.3625,177 L244.3625,179.2625 C244.3625,179.604168 244.412499,179.916665 244.5125,180.2 C244.312499,179.974999 244.058335,179.779167 243.75,179.6125 L241.8375,178.475 L241.0375,179.825 L242.95,180.9625 C243.100001,181.054167 243.254166,181.133333 243.4125,181.2 C243.565548,181.264441 243.718594,181.309416 243.871642,181.334926 Z M245.862523,180.187435 C245.862515,180.187457 245.862508,180.187478 245.8625,180.1875 C245.865066,180.184507 245.867641,180.181521 245.870226,180.178544 L245.862523,180.187435 Z M254.496642,181.334926 L254.512357,181.337523 C254.354072,181.362526 254.197871,181.406269 254.04375,181.46875 C253.889583,181.53125 253.733334,181.608333 253.575,181.7 L251.6625,182.8125 L252.475,184.175 L254.375,183.0625 C254.683335,182.895832 254.933332,182.704168 255.125,182.4875 C255.075,182.629167 255.039583,182.781249 255.01875,182.94375 C254.997917,183.106251 254.9875,183.270832 254.9875,183.4375 L254.9875,185.6625 L256.625,185.6625 L256.625,183.4125 C256.625,183.070832 256.575,182.754168 256.475,182.4625 C256.575,182.579167 256.691666,182.685416 256.825,182.78125 C256.958334,182.877084 257.099999,182.970833 257.25,183.0625 L259.1625,184.2 L259.9625,182.8375 L258.05,181.7 C257.741665,181.508332 257.433335,181.3875 257.125,181.3375 C257.283334,181.304167 257.439583,181.25625 257.59375,181.19375 C257.747917,181.13125 257.899999,181.054167 258.05,180.9625 L259.9625,179.85 L259.15,178.5 L257.25,179.6125 C257.099999,179.695834 256.960417,179.783333 256.83125,179.875 C256.705397,179.964315 256.59339,180.065496 256.487523,180.187435 C256.537511,180.045786 256.57292,179.893726 256.59375,179.73125 C256.614583,179.568749 256.625,179.404167 256.625,179.2375 L256.625,177 L254.9875,177 L254.9875,179.2625 C254.9875,179.604168 255.037499,179.916665 255.1375,180.2 C254.937499,179.974999 254.683335,179.779167 254.375,179.6125 L252.4625,178.475 L251.6625,179.825 L253.575,180.9625 C253.725001,181.054167 253.879166,181.133333 254.0375,181.2 C254.190548,181.264441 254.343594,181.309416 254.496642,181.334926 Z M256.487523,180.187435 C256.487515,180.187457 256.487508,180.187478 256.4875,180.1875 C256.490066,180.184507 256.492641,180.181521 256.495226,180.178544 L256.487523,180.187435 Z M265.121642,181.334926 L265.137357,181.337523 C264.979072,181.362526 264.822871,181.406269 264.66875,181.46875 C264.514583,181.53125 264.358334,181.608333 264.2,181.7 L262.2875,182.8125 L263.1,184.175 L265,183.0625 C265.308335,182.895832 265.558332,182.704168 265.75,182.4875 C265.7,182.629167 265.664583,182.781249 265.64375,182.94375 C265.622917,183.106251 265.6125,183.270832 265.6125,183.4375 L265.6125,185.6625 L267.25,185.6625 L267.25,183.4125 C267.25,183.070832 267.2,182.754168 267.1,182.4625 C267.2,182.579167 267.316666,182.685416 267.45,182.78125 C267.583334,182.877084 267.724999,182.970833 267.875,183.0625 L269.7875,184.2 L270.5875,182.8375 L268.675,181.7 C268.366665,181.508332 268.058335,181.3875 267.75,181.3375 C267.908334,181.304167 268.064583,181.25625 268.21875,181.19375 C268.372917,181.13125 268.524999,181.054167 268.675,180.9625 L270.5875,179.85 L269.775,178.5 L267.875,179.6125 C267.724999,179.695834 267.585417,179.783333 267.45625,179.875 C267.330397,179.964315 267.21839,180.065496 267.112523,180.187435 C267.162511,180.045786 267.19792,179.893726 267.21875,179.73125 C267.239583,179.568749 267.25,179.404167 267.25,179.2375 L267.25,177 L265.6125,177 L265.6125,179.2625 C265.6125,179.604168 265.662499,179.916665 265.7625,180.2 C265.562499,179.974999 265.308335,179.779167 265,179.6125 L263.0875,178.475 L262.2875,179.825 L264.2,180.9625 C264.350001,181.054167 264.504166,181.133333 264.6625,181.2 C264.815548,181.264441 264.968594,181.309416 265.121642,181.334926 Z M267.112523,180.187435 C267.112515,180.187457 267.112508,180.187478 267.1125,180.1875 C267.115066,180.184507 267.117641,180.181521 267.120226,180.178544 L267.112523,180.187435 Z M275.746642,181.334926 L275.762357,181.337523 C275.604072,181.362526 275.447871,181.406269 275.29375,181.46875 C275.139583,181.53125 274.983334,181.608333 274.825,181.7 L272.9125,182.8125 L273.725,184.175 L275.625,183.0625 C275.933335,182.895832 276.183332,182.704168 276.375,182.4875 C276.325,182.629167 276.289583,182.781249 276.26875,182.94375 C276.247917,183.106251 276.2375,183.270832 276.2375,183.4375 L276.2375,185.6625 L277.875,185.6625 L277.875,183.4125 C277.875,183.070832 277.825,182.754168 277.725,182.4625 C277.825,182.579167 277.941666,182.685416 278.075,182.78125 C278.208334,182.877084 278.349999,182.970833 278.5,183.0625 L280.4125,184.2 L281.2125,182.8375 L279.3,181.7 C278.991665,181.508332 278.683335,181.3875 278.375,181.3375 C278.533334,181.304167 278.689583,181.25625 278.84375,181.19375 C278.997917,181.13125 279.149999,181.054167 279.3,180.9625 L281.2125,179.85 L280.4,178.5 L278.5,179.6125 C278.349999,179.695834 278.210417,179.783333 278.08125,179.875 C277.955397,179.964315 277.84339,180.065496 277.737523,180.187435 C277.787511,180.045786 277.82292,179.893726 277.84375,179.73125 C277.864583,179.568749 277.875,179.404167 277.875,179.2375 L277.875,177 L276.2375,177 L276.2375,179.2625 C276.2375,179.604168 276.287499,179.916665 276.3875,180.2 C276.187499,179.974999 275.933335,179.779167 275.625,179.6125 L273.7125,178.475 L272.9125,179.825 L274.825,180.9625 C274.975001,181.054167 275.129166,181.133333 275.2875,181.2 C275.440548,181.264441 275.593594,181.309416 275.746642,181.334926 Z M277.737523,180.187435 C277.737515,180.187457 277.737508,180.187478 277.7375,180.1875 C277.740066,180.184507 277.742641,180.181521 277.745226,180.178544 L277.737523,180.187435 Z" id="Combined-Shape" fill="#f2f7ff"></path>
    </g>
</svg>