<svg version="1.1" id="innogy_picto_person_gear.svg" xmlns="http://www.w3.org/2000/svg" xmlns:xlink="http://www.w3.org/1999/xlink" viewBox="0 0 85.04 85.04">
  <title>innogy_picto_person_gear</title>
  <!-- ##################################################################################################### -->
  <!-- For positive version please edit color rgba(0,0,0,1); -->
  <!-- or -->
  <!-- For negative version please edit color rgba(255,255,255,1); -->
  <!-- ##################################################################################################### -->
  <path id="innogy_picto_person_gear" fill="currentColor" shape-rendering="geometricPrecision" color-rendering="optimizeQuality" d="M24.06958,33.981A16.99051,16.99051,0,1,0,7.07935,16.99072,16.99047,16.99047,0,0,0,24.06958,33.981ZM12.35193,11.98975c0.21112,0.27557.43835,0.55994,0.698,0.87738a11.19129,11.19129,0,0,0,8.739,4.2934,12.21469,12.21469,0,0,0,5.707-1.47211,2.12344,2.12344,0,0,0-1.9823-3.75586,7.08232,7.08232,0,0,1-9.17609-1.754,6.81677,6.81677,0,0,1-1.34045-2.12134A12.70315,12.70315,0,1,1,12.35193,11.98975Zm68.386,40.4566-1.78076-.01025a1.93231,1.93231,0,0,1-1.663-1.01288,2.14156,2.14156,0,0,1,.01031-2.08838l0.89691-1.57635a4.437,4.437,0,0,0-1.54321-5.96863L69.564,37.53265a4.23953,4.23953,0,0,0-3.28473-.47186,4.30114,4.30114,0,0,0-2.6637,2.05377L62.71863,40.69a1.9325,1.9325,0,0,1-1.66571.99506H61.0426a1.93135,1.93135,0,0,1-1.6629-1.01239l-0.881-1.58612a4.30335,4.30335,0,0,0-2.64221-2.08234,4.23646,4.23646,0,0,0-3.28943.43628l-7.13812,4.181a4.342,4.342,0,0,0-1.92572,2.43793,14.31991,14.31991,0,0,0-10.21405-4.35706H14.834c-8.1842,0-14.842,7.06915-14.842,15.75726L0,82.9187a2.12477,2.12477,0,0,0,2.1344,2.12067L34.68958,85.04a2.13485,2.13485,0,0,0,1.94189-3.007,2.08794,2.08794,0,0,0-1.94775-1.23431L4.25739,80.79205,4.24933,55.45966c0-6.35028,4.74823-11.516,10.58472-11.516H33.28912a10.64029,10.64029,0,0,1,9.77179,7.12122c0.13855,0.3623.25311,0.73767,0.35785,1.11749a2.04523,2.04523,0,0,1-.40009.0592l-1.777-.00934A4.10905,4.10905,0,0,0,38.158,53.52a4.3944,4.3944,0,0,0-1.26355,3.077l-0.04395,8.43768a4.362,4.362,0,0,0,4.30322,4.40961l1.778,0.0094a1.93244,1.93244,0,0,1,1.663,1.01282,2.14342,2.14342,0,0,1-.0094,2.08936l-0.78,1.37012a4.681,4.681,0,0,0,1.62646,6.295l6.894,4.13751a4.24087,4.24087,0,0,0,3.28564.4704,4.29915,4.29915,0,0,0,2.66278-2.05377l0.89789-1.57776a1.92936,1.92936,0,0,1,1.6629-.99323h0.01031a1.92994,1.92994,0,0,1,1.663,1.011l0.00092,0.001,0.882,1.588a4.31351,4.31351,0,0,0,3.77576,2.23523,4.24557,4.24557,0,0,0,2.15588-.59015l7.13812-4.18048a4.43783,4.43783,0,0,0,1.60492-5.95184l-0.881-1.58618a2.14331,2.14331,0,0,1,.01123-2.08929,1.9003,1.9003,0,0,1,1.67322-.99323l1.777,0.00934a4.24612,4.24612,0,0,0,3.08551-1.28784,4.38979,4.38979,0,0,0,1.26361-3.076L85.03931,56.856A4.36179,4.36179,0,0,0,80.73792,52.44635Zm0.00586,12.78644a0.33627,0.33627,0,0,1-.09357.23914,0.16552,0.16552,0,0,1-.15851.07043l-1.763-.00928H78.69812a5.95711,5.95711,0,0,0-5.1554,3.02362,6.18458,6.18458,0,0,0-.03149,6.02679l0.87219,1.57111a0.3486,0.3486,0,0,1-.10193.4588l-7.0741,4.14331a0.19623,0.19623,0,0,1-.15479.02228,0.25546,0.25546,0,0,1-.1557-0.13068l-0.87317-1.573a5.95356,5.95356,0,0,0-5.15723-3.08014H60.83594a5.95119,5.95119,0,0,0-5.1554,3.02454l-0.88983,1.56372a0.25417,0.25417,0,0,1-.1557.12787,0.19633,0.19633,0,0,1-.1557-0.02411l-6.83124-4.09973a0.587,0.587,0,0,1-.1817-0.7832l0.77307-1.358a6.18384,6.18384,0,0,0,.02686-6.03143,5.95433,5.95433,0,0,0-5.15259-3.07458l-1.762-.00928a0.29093,0.29093,0,0,1-.24933-0.31421l0.04352-8.36261A0.33652,0.33652,0,0,1,41.2395,56.415a0.25888,0.25888,0,0,1,.15851-0.07141l1.75922,0.00928h0.0343a5.94935,5.94935,0,0,0,5.15265-3.02081l0.01111-.01947a6.18221,6.18221,0,0,0,.02319-6.01056l-0.87225-1.57019a0.348,0.348,0,0,1,.102-0.45837l7.07312-4.14331A0.19588,0.19588,0,0,1,54.837,41.108a0.25682,0.25682,0,0,1,.15576.13068l0.87311,1.57159a5.90779,5.90779,0,0,0,10.34418.05469l0.88885-1.56183a0.25212,0.25212,0,0,1,.15576-0.12793,0.19745,0.19745,0,0,1,.1557.02411l7.03052,4.2193a0.35293,0.35293,0,0,1,.09827.45972l-0.88892,1.56232a6.17938,6.17938,0,0,0-.02875,6.02777,5.94938,5.94938,0,0,0,5.15167,3.07733L80.538,56.55591a0.291,0.291,0,0,1,.24933.31421ZM60.9444,51.02362a9.92126,9.92126,0,1,0,9.92175,9.92072A9.93176,9.93176,0,0,0,60.9444,51.02362Zm0,15.59052a5.66928,5.66928,0,1,1,5.6698-5.6698A5.67546,5.67546,0,0,1,60.9444,66.61414Z"/>
</svg>
